<svg xmlns="http://www.w3.org/2000/svg" width="800" height="500" viewBox="0 0 800 500">
  <defs>
    <linearGradient id="bg1" x1="0" y1="0" x2="1" y2="1">
      <stop offset="0%" stop-color="#0b1020"/>
      <stop offset="100%" stop-color="#182b52"/>
    </linearGradient>
    <linearGradient id="screen1" x1="0" y1="0" x2="1" y2="1">
      <stop offset="0%" stop-color="#06b6d4"/>
      <stop offset="100%" stop-color="#2563eb"/>
    </linearGradient>
  </defs>
  <rect width="800" height="500" fill="url(#bg1)"/>
  <rect x="48" y="30" width="704" height="440" rx="18" fill="#0f172a" opacity="0.38"/>
  <rect x="116" y="72" width="568" height="320" rx="14" fill="#111827"/>
  <rect x="128" y="84" width="544" height="296" rx="10" fill="url(#screen1)"/>
  <rect x="128" y="84" width="544" height="296" rx="10" fill="#ffffff" opacity="0.08"/>
  <rect x="132" y="88" width="220" height="60" rx="8" fill="#ffffff" opacity="0.16"/>
  <rect x="136" y="92" width="120" height="14" rx="7" fill="#e2e8f0" opacity="0.9"/>
  <rect x="136" y="112" width="90" height="10" rx="5" fill="#e2e8f0" opacity="0.65"/>
  <text x="148" y="130" fill="#f8fafc" font-size="22" font-family="Arial">QSY-195A</text>
  <text x="148" y="156" fill="#e2e8f0" font-size="14" font-family="Arial">19.5-inch business monitor</text>
  <rect x="360" y="396" width="80" height="34" rx="8" fill="#1f2937"/>
  <rect x="310" y="432" width="180" height="16" rx="8" fill="#334155"/>
  <circle cx="644" cy="104" r="22" fill="#22d3ee"/>
  <text x="632" y="110" fill="#022c22" font-size="14" font-family="Arial" font-weight="700">NEW</text>
</svg>
